<svg id="レイヤー_1" data-name="レイヤー 1" xmlns="http://www.w3.org/2000/svg" viewBox="0 0 498.16 80.6"><defs><style>.cls-1{fill:#7e3188;}.cls-1,.cls-10,.cls-2,.cls-3,.cls-4,.cls-5,.cls-6,.cls-7,.cls-8,.cls-9{stroke:#000;stroke-miterlimit:10;stroke-width:4px;}.cls-2{fill:#94d509;}.cls-3{fill:#1945ba;}.cls-4{fill:#afa690;}.cls-5{fill:#e22b30;}.cls-6{fill:#59b7db;}.cls-7{fill:#ffe012;}.cls-8{fill:#e64a79;}.cls-9{fill:#33d5ac;}.cls-10{fill:#f39939;}</style></defs><g id="レイヤー_11" data-name="レイヤー 11"><path class="cls-1" d="M493.26,27.88c.92.54,4.51,11.18,3.84,11.68-1.56,1.17-9.07,1.28-9.68,4.34-.5,2.5,9.7,11.93,8,22.36-1.49,9.22-12.63,12.47-14.18,13.18-3.46,1.58-10.94,1.7-11.85,1.33s-3.86-10.86-3.34-12c.83-1.84,8.95,0,10.51-7,.33-1.5-3.34-6.17-5.84-11s-2.75-7.48-2.17-10.68c1.33-7.29,6.67-10,10.51-11.51C483.16,27,491.26,26.71,493.26,27.88Z" transform="translate(-1.02 -10.69)"/></g><g id="レイヤー_10" data-name="レイヤー 10"><path class="cls-2" d="M432.86,28.21c-1,.5-3.5,49.22-2.34,50.22s30.2,2.5,31.2,1.33,1.5-13.85.5-14.52c-1.67-1.11-14.85-.83-15.35-1.5-.71-.94,2.93-33,1.67-34.87C447.54,27.38,434,27.64,432.86,28.21Z" transform="translate(-1.02 -10.69)"/></g><g id="レイヤー_9" data-name="レイヤー 9"><path class="cls-3" d="M398.15,23.87c16-.32,28.2,7.68,28.87,27.7.52,15.51-13.73,25.86-28,25.86-18.52,0-28.2-7.17-27.7-27.53C371.69,33.87,381.47,24.21,398.15,23.87Zm-10.67,26.2c0,6.51,4.62,13.35,11.68,13.35,8.34,0,12.35-8,12.35-13.52,0-6.34-6.17-12.68-12.35-12.68C392.48,37.22,387.48,43.79,387.48,50.07Z" transform="translate(-1.02 -10.69)"/></g><g id="レイヤー_8" data-name="レイヤー 8"><path class="cls-4" d="M331.58,23.87c10.34-.17,26.26-3,34.2,12.51,3.17,6.17,3.17,18.52-.5,26.53-7.14,15.59-27.22,15.31-30,15.35-4.31.07-7.76-1-13.68-1-1.33,0-3.84-49.72-2.17-50.72C321.94,25,329.41,23.91,331.58,23.87Zm4,14.68c-.84.15,1.15,24.41,1.67,24.53,1.5.33,10.39-1.45,12-5.67.83-2.17,1.07-12.39,0-14C345.43,37.55,339.42,37.89,335.58,38.55Z" transform="translate(-1.02 -10.69)"/></g><g id="レイヤー_7" data-name="レイヤー 7"><path class="cls-5" d="M297.54,24.71c1.33-1.17,14.52-.83,15.52-.33s1,52.23-.17,53.06-15,.67-16.35-.17C295.44,76.57,296.56,25.56,297.54,24.71Z" transform="translate(-1.02 -10.69)"/></g><g id="レイヤー_2" data-name="レイヤー 2"><path class="cls-6" d="M240.46,35.35c-.47.24-11.09-11.33-10.62-12.51,2.73-6.82,19.26-12.45,32.81-9.2,11.1,2.66,22.76,9.21,23.13,21.48.24,7.79-8,16.19-8,16.52s10.91,3.54,10.86,16.29c-.07,16.21-12.16,18.14-19.12,19.83-11.05,2.67-28.72,1.62-30-1.42-.4-1,3.3-13,3.54-13.22,2.36-2.36,12.27,2.83,17.47,0,2.33-1.27,3-5.33,2.36-7.08-2.5-6.32-8.73-1.65-10.15-3.78-1.91-2.86-2.12-15.11-1.42-15.81,1.49-1.49,9.44-2.83,10.15-5.9.44-1.9.27-3.59-3.3-7.32C254,28.89,244.81,33.18,240.46,35.35Z" transform="translate(-1.02 -10.69)"/></g><g id="レイヤー_6" data-name="レイヤー 6"><path class="cls-7" d="M188.25,26.71c-.33,1.33-.33,13,.33,13.85s10.51-.5,11.35-.17,1.84,35.37,2.84,36.71c.71.94,14.68.83,15.35-.5,1-2-1.17-35.21-.33-36.54.94-1.5,9-.17,10-1.33s0-12.18-1-13.35C224.86,23.12,189.92,25.54,188.25,26.71Z" transform="translate(-1.02 -10.69)"/></g><g id="レイヤー_5" data-name="レイヤー 5"><path class="cls-8" d="M140.7,77.1c-1.17-2.34,19.35-49,21-49.72,1.25-.5,13.35-.5,14.18,0s24,48.39,23.69,49.39c-.52,1.56-16.18,4.51-16.85,4.34-1.54-.38-12-32.37-14.35-32.54-1.17-.08-4.84,9.68-4.51,10.85.21.72,6.84.5,7.68.83s-.17,13.52-1.17,14.18c-1.19.8-11.54-.71-12-.33-.83.67-2.67,5.51-3.5,6.51C154.35,81.24,141.18,78.05,140.7,77.1Z" transform="translate(-1.02 -10.69)"/></g><g id="レイヤー_4" data-name="レイヤー 4"><path class="cls-9" d="M88.7,23.72c-1.5,1-.72,52.84.72,54.1,2,1.78,13.17,1.8,15.15.36,2.37-1.73,1-54.05.36-54.64C103.49,22.28,89.78,23,88.7,23.72Z" transform="translate(-1.02 -10.69)"/><path class="cls-9" d="M124.77,23.36c.32-.4,15.33.18,15.87.54s-2.89,54.46-3.25,54.83c-.54.54-15.33-.54-15.51-.9-.4-.81.9-20,.54-20.38-.72-.72-14.79-.36-15.33-.9-1.38-1.38-.27-13.43.72-14.43,1.44-1.44,14.61.72,15.33.36C124,42.05,124.05,24.26,124.77,23.36Z" transform="translate(-1.02 -10.69)"/></g><g id="レイヤー_3" data-name="レイヤー 3"><path class="cls-10" d="M3.05,28.56c2-4.87,9.45-6.16,15-5.61,3.74.37,14.63,32.45,16.08,32.16,1.07-.21,1.14-20.29,2.8-20.75,3.37-.93,10.75-.75,13.09-.75,3.37,0,6.39,20.77,7.48,20.75,1.43,0,6.56-32,8.41-33.09,2.62-1.5,14.35,1.55,15.71,3.18,1.87,2.24-9.16,51.23-15,54-1.38.67-10.83,1.82-13.84,1.12C50.35,79,48,64.47,46.42,64.46s-4.57,14.8-6.73,15.71-12,1.31-13.84.56C23.05,79.6,2.11,30.8,3.05,28.56Z" transform="translate(-1.02 -10.69)"/></g></svg>