<?xml version="1.0" encoding="utf-8"?>
<!-- Generator: Adobe Illustrator 26.0.1, SVG Export Plug-In . SVG Version: 6.00 Build 0)  -->
<svg version="1.1" xmlns="http://www.w3.org/2000/svg" xmlns:xlink="http://www.w3.org/1999/xlink" x="0px" y="0px"
	 viewBox="0 0 500 100" style="enable-background:new 0 0 500 100;" xml:space="preserve">
<style type="text/css">
	.st0{fill:#FFCC33;stroke:#000000;stroke-width:4;stroke-miterlimit:10;}
	.st1{fill:#33FF33;stroke:#000000;stroke-width:4;stroke-miterlimit:10;}
	.st2{fill:#00FFFF;stroke:#000000;stroke-width:4;stroke-miterlimit:10;}
	.st3{fill:#FF6600;stroke:#000000;stroke-width:4;stroke-miterlimit:10;}
	.st4{fill:#FF66FF;stroke:#000000;stroke-width:4;stroke-miterlimit:10;}
	.st5{fill:#3399FF;stroke:#000000;stroke-width:4;stroke-miterlimit:10;}
	.st6{fill:#FFFF00;stroke:#000000;stroke-width:4;stroke-miterlimit:10;}
	.st7{fill:#FF3366;stroke:#000000;stroke-width:4;stroke-miterlimit:10;}
	.st8{fill:#009933;stroke:#000000;stroke-width:4;stroke-miterlimit:10;}
	.st9{fill:#F5A600;stroke:#000000;stroke-width:4;stroke-miterlimit:10;}
</style>
<g id="レイヤー_1">
</g>
<g id="レイヤー_11">
	<path class="st0" d="M493.26,27.88c0.92,0.54,4.51,11.18,3.84,11.68c-1.56,1.17-9.07,1.28-9.68,4.34c-0.5,2.5,9.7,11.93,8.01,22.36
		c-1.49,9.22-12.63,12.47-14.18,13.18c-3.46,1.58-10.94,1.7-11.85,1.33c-0.83-0.33-3.86-10.86-3.34-12.01
		c0.83-1.84,8.95,0.01,10.51-7.01c0.33-1.5-3.34-6.17-5.84-11.01c-2.42-4.69-2.75-7.48-2.17-10.68c1.33-7.29,6.67-10.01,10.51-11.51
		C483.16,26.95,491.26,26.71,493.26,27.88z"/>
</g>
<g id="レイヤー_10">
	<path class="st1" d="M432.86,28.21c-1,0.5-3.5,49.22-2.34,50.22c1.09,0.93,30.2,2.5,31.2,1.33c1.09-1.27,1.5-13.85,0.5-14.52
		c-1.67-1.11-14.85-0.83-15.35-1.5c-0.71-0.94,2.93-32.98,1.67-34.87C447.54,27.38,434,27.64,432.86,28.21z"/>
</g>
<g id="レイヤー_9">
	<path class="st2" d="M398.15,23.87c16.01-0.32,28.2,7.68,28.87,27.7c0.52,15.51-13.73,25.86-28.03,25.86
		c-18.52,0-28.2-7.17-27.7-27.53C371.69,33.87,381.47,24.21,398.15,23.87z M387.48,50.07c0,6.51,4.62,13.35,11.68,13.35
		c8.34,0,12.35-8.01,12.35-13.52c0-6.34-6.17-12.68-12.35-12.68C392.48,37.22,387.48,43.79,387.48,50.07z"/>
</g>
<g id="レイヤー_8">
	<path class="st3" d="M331.58,23.87c10.34-0.17,26.26-2.96,34.2,12.51c3.17,6.17,3.17,18.52-0.5,26.53
		c-7.14,15.59-27.22,15.31-30.03,15.35c-4.31,0.07-7.76-1-13.68-1c-1.33,0-3.84-49.72-2.17-50.72
		C321.94,25.02,329.41,23.91,331.58,23.87z M335.58,38.55c-0.84,0.15,1.15,24.41,1.67,24.53c1.5,0.33,10.39-1.45,12.01-5.67
		c0.83-2.17,1.07-12.39,0-14.02C345.43,37.55,339.42,37.89,335.58,38.55z"/>
</g>
<g id="レイヤー_7">
	<path class="st4" d="M297.54,24.71c1.33-1.17,14.52-0.83,15.52-0.33c0.87,0.44,1,52.23-0.17,53.06s-15.02,0.67-16.35-0.17
		C295.44,76.57,296.56,25.56,297.54,24.71z"/>
</g>
<g id="レイヤー_2">
	<path class="st5" d="M240.46,35.35c-0.47,0.24-11.09-11.33-10.62-12.51c2.73-6.82,19.26-12.45,32.81-9.2
		c11.1,2.66,22.76,9.21,23.13,21.48c0.24,7.79-8.02,16.19-8.02,16.52c0,0.24,10.91,3.54,10.86,16.29
		c-0.07,16.21-12.16,18.14-19.12,19.83c-11.05,2.67-28.72,1.62-29.97-1.42c-0.4-0.98,3.3-12.98,3.54-13.22
		c2.36-2.36,12.27,2.83,17.47,0c2.33-1.27,3.05-5.33,2.36-7.08c-2.5-6.32-8.73-1.65-10.15-3.78c-1.91-2.86-2.12-15.11-1.42-15.81
		c1.49-1.49,9.44-2.83,10.15-5.9c0.44-1.9,0.27-3.59-3.3-7.32C254.01,28.89,244.81,33.18,240.46,35.35z"/>
</g>
<g id="レイヤー_6">
	<path class="st6" d="M188.25,26.71c-0.33,1.33-0.33,13.01,0.33,13.85c0.74,0.92,10.51-0.5,11.35-0.17
		c0.98,0.39,1.84,35.37,2.84,36.71c0.71,0.94,14.68,0.83,15.35-0.5c1.01-2.03-1.17-35.21-0.33-36.54c0.94-1.5,9.01-0.17,10.01-1.33
		c1-1.17,0-12.18-1-13.35C224.86,23.12,189.92,25.54,188.25,26.71z"/>
</g>
<g id="レイヤー_5">
	<path class="st7" d="M140.7,77.1c-1.17-2.34,19.35-49.05,21.02-49.72c1.25-0.5,13.35-0.5,14.18,0
		c0.77,0.46,24.03,48.39,23.69,49.39c-0.52,1.56-16.18,4.51-16.85,4.34c-1.54-0.38-12.01-32.37-14.35-32.54
		c-1.17-0.08-4.84,9.68-4.51,10.85c0.21,0.72,6.84,0.5,7.68,0.83c0.77,0.31-0.17,13.52-1.17,14.18c-1.19,0.8-11.54-0.71-12.01-0.33
		c-0.83,0.67-2.67,5.51-3.5,6.51C154.35,81.24,141.18,78.05,140.7,77.1z"/>
</g>
<g id="レイヤー_4">
	<g>
		<path class="st8" d="M88.7,23.72c-1.5,1-0.72,52.84,0.72,54.1c2.04,1.78,13.17,1.8,15.15,0.36c2.37-1.73,1.04-54.05,0.36-54.64
			C103.49,22.28,89.78,23,88.7,23.72z"/>
		<path class="st8" d="M124.77,23.36c0.32-0.4,15.33,0.18,15.87,0.54c0.54,0.36-2.89,54.46-3.25,54.83
			c-0.54,0.54-15.33-0.54-15.51-0.9c-0.4-0.81,0.9-20.02,0.54-20.38c-0.72-0.72-14.79-0.36-15.33-0.9
			c-1.38-1.38-0.27-13.43,0.72-14.43c1.44-1.44,14.61,0.72,15.33,0.36C124.02,42.05,124.05,24.26,124.77,23.36z"/>
	</g>
</g>
<g id="レイヤー_3">
	<path class="st9" d="M3.05,28.56c2.03-4.87,9.45-6.16,14.96-5.61c3.74,0.37,14.63,32.45,16.08,32.16
		c1.07-0.21,1.14-20.29,2.8-20.75c3.37-0.93,10.75-0.75,13.09-0.75c3.37,0,6.39,20.77,7.48,20.75c1.43-0.03,6.56-32.04,8.41-33.09
		c2.62-1.5,14.35,1.55,15.71,3.18c1.87,2.24-9.16,51.23-14.96,54.03c-1.38,0.67-10.83,1.82-13.84,1.12
		c-2.43-0.56-4.75-15.13-6.36-15.14c-1.6-0.01-4.57,14.8-6.73,15.71c-2.24,0.93-11.97,1.31-13.84,0.56
		C23.05,79.6,2.11,30.8,3.05,28.56z"/>
</g>
</svg>
